<!DOCTYPE svg PUBLIC "-//W3C//DTD SVG 1.1//EN" "http://www.w3.org/Graphics/SVG/1.1/DTD/svg11.dtd">
<!-- Uploaded to: SVG Repo, www.svgrepo.com, Transformed by: SVG Repo Mixer Tools -->
<svg fill="#0F9D58" width="64px" height="64px" viewBox="0 0 24 24" role="img" xmlns="http://www.w3.org/2000/svg">
<g id="SVGRepo_bgCarrier" stroke-width="0"/>
<g id="SVGRepo_tracerCarrier" stroke-linecap="round" stroke-linejoin="round"/>
<g id="SVGRepo_iconCarrier">
<path d="M11.318 12.545H7.91v-1.909h3.41v1.91zM14.728 0v6h6l-6-6zm1.363 10.636h-3.41v1.91h3.41v-1.91zm0 3.273h-3.41v1.91h3.41v-1.91zM20.727 6.5v15.864c0 .904-.732 1.636-1.636 1.636H4.909a1.636 1.636 0 0 1-1.636-1.636V1.636C3.273.732 4.005 0 4.909 0h9.318v6.5h6.5zm-3.273 2.773H6.545v7.909h10.91v-7.91zm-6.136 4.636H7.91v1.91h3.41v-1.91z"/>
</g>
</svg>